<?xml version="1.0" encoding="utf-8"?>
<!-- Generator: Adobe Illustrator 27.8.1, SVG Export Plug-In . SVG Version: 6.00 Build 0)  -->
<svg version="1.1" id="_レイヤー_2" xmlns="http://www.w3.org/2000/svg" xmlns:xlink="http://www.w3.org/1999/xlink" x="0px"
	 y="0px" viewBox="0 0 488.8 193.6" style="enable-background:new 0 0 488.8 193.6;" xml:space="preserve">
<style type="text/css">
	.st0{fill:none;stroke:#231815;stroke-miterlimit:10;}
</style>
<g id="_レイヤー_1-2">
	<path class="st0" d="M0.4,138.3c28.8-42,54.6-86,77-131.8c24.9,0.6,52.6,8.2,64.9,30c9.7,17.2,6.7,39.6-4.2,56
		c-10.9,16.4-28.5,27.4-47.1,34c-22.6,8.1-47.3,10.3-71,6.4c26,5.1,52.9,7.7,78.8,2.4s50.9-19.6,64.6-42.3
		c-19.8,4.4-36.7,20.3-42.2,39.8c2.8,2.8,7.4-0.1,10.1-3c9.7-10.3,19.1-20.7,28.3-31.4c-5.9,5.2-10.5,12-12.9,19.5
		c-0.7,2.3-1.3,4.8-0.4,7c2.1,5.5,10.2,4.7,15.6,2.4c13.7-6,25.7-15.9,34.2-28.2c-5.1,5.9-10.3,11.7-15.4,17.6
		c-1.9,2.2-3.9,4.7-3.8,7.6c0.2,4.1,4.9,6.8,9,6.3c4.1-0.4,7.6-3,10.8-5.5c13.1-10,26.2-20,39.2-30c1.4-1.1,0.4-4.6-0.3-2.9
		c6.1,8.6,2.4,21.7-6.4,27.6c-8.7,5.9-20.7,5.4-30.1,0.8c20.5,4.3,40.8-6.9,57.8-19.1c38-27.3,70.8-61.8,96.1-101.2
		c-21.3,37.9-56,66.2-83.1,100.2c-2.2,2.7-4.4,6.3-3,9.4c1,2.2,3.4,3.3,5.7,4c10.2,2.9,21.3,0.3,30.5-4.9c9.2-5.2,16.9-12.6,24.5-20
		c-6,3.8-10.9,9.4-13.6,16c-1.1,2.6-1.8,5.7-0.3,8c2.5,3.8,8.5,2.3,12.6,0.2c20.8-10.6,39.7-24.8,55.5-41.9
		c-36.6,32.3-46.7,89.2-87.7,115.8c-4.8,3.1-10.1,5.8-15.8,6.1s-11.8-2.2-14.4-7.3c-5.2-9.9,5.2-20.7,14.6-26.8
		c64-42.2,137.1-70.5,196-119.6c5.7-4.8,11.6-10.2,13.3-17.4c0.9-3.6,0.5-7.6-1.4-10.7c-3.7-5.8-12.1-7.1-18.5-4.7
		c-6.4,2.5-11.3,7.7-15.8,13c-24.8,28.8-45,61.5-59.9,96.5c-0.6,1.5-1.3,3.2-0.8,4.8c1.3,4.2,7.6,2.7,11.4,0.3
		c10.8-7,21.7-13.9,32.5-20.9"/>
</g>
</svg>
